<?xml version="1.0" standalone="no"?>
<!DOCTYPE svg PUBLIC "-//W3C//DTD SVG 20010904//EN"
 "http://www.w3.org/TR/2001/REC-SVG-20010904/DTD/svg10.dtd">
<svg version="1.0" xmlns="http://www.w3.org/2000/svg"
 width="512.000000pt" height="512.000000pt" viewBox="0 0 512.000000 512.000000"
 preserveAspectRatio="xMidYMid meet">
<metadata>
Created by potrace 1.11, written by Peter Selinger 2001-2013
</metadata>
<g transform="translate(0.000000,512.000000) scale(0.100000,-0.100000)"
fill="#000000" stroke="none">
<path d="M0 2560 l0 -2560 2560 0 2560 0 0 2560 0 2560 -2560 0 -2560 0 0
-2560z m1687 685 c242 -32 395 -68 522 -125 127 -57 156 -62 351 -62 195 0
224 5 351 62 190 85 507 140 804 140 284 0 654 -23 859 -52 l78 -11 -7 -121
c-4 -66 -11 -122 -16 -124 -28 -11 -76 -52 -91 -79 -11 -17 -26 -67 -34 -110
-85 -442 -153 -624 -279 -742 -70 -65 -173 -121 -270 -147 -200 -52 -553 -9
-765 94 -186 90 -380 374 -459 669 -16 62 -36 122 -45 134 -56 81 -196 81
-252 0 -9 -12 -29 -72 -45 -134 -79 -297 -274 -580 -460 -670 -215 -103 -564
-145 -764 -93 -97 26 -200 82 -270 147 -126 118 -194 300 -279 742 -8 43 -23
93 -34 110 -15 27 -63 68 -91 79 -5 2 -12 58 -16 124 l-7 121 78 12 c329 46
917 65 1141 36z"/>
<path d="M1195 3134 c-182 -25 -263 -55 -339 -125 -94 -86 -118 -176 -96 -371
27 -247 108 -432 240 -552 149 -134 455 -163 750 -71 126 40 193 79 263 156
96 103 153 211 194 360 24 88 24 273 0 350 -34 111 -129 186 -295 231 -69 19
-109 21 -382 23 -168 2 -318 1 -335 -1z"/>
<path d="M3276 3125 c-205 -36 -324 -115 -363 -242 -24 -79 -24 -264 0 -352
41 -149 98 -257 194 -360 70 -77 137 -116 263 -156 295 -92 601 -63 750 71 91
82 171 223 208 365 25 96 46 285 39 353 -16 158 -131 268 -327 313 -94 22
-653 28 -764 8z"/>
</g>
</svg>
